<?xml version="1.0" encoding="UTF-8"?>
<svg xmlns="http://www.w3.org/2000/svg" xmlns:xlink="http://www.w3.org/1999/xlink" width="192px" height="256px" viewBox="0 0 192 127" version="1.1">
<g id="surface1">
<path style=" stroke:none;fill-rule:evenodd;fill:rgb(48.627451%,45.098039%,40.392157%);fill-opacity:1;" d="M 177.792969 18.015625 C 177.792969 17.757812 177.625 17.15625 177.277344 16.210938 C 176.847656 15.269531 176.636719 14.539062 176.636719 14.023438 L 176.636719 13.769531 C 178.523438 15.222656 180.414062 17.285156 182.300781 19.945312 Z M 168.519531 26.25 C 167.230469 29.164062 165.898438 31.394531 164.527344 32.941406 C 162.035156 35.855469 158.730469 36.5 154.609375 34.871094 L 153.835938 34.871094 C 157.183594 36.070312 164.308594 36.757812 175.21875 36.929688 C 175.816406 39.332031 176.121094 41.5625 176.121094 43.621094 C 176.121094 46.019531 175.777344 50.097656 175.089844 55.84375 L 168.136719 52.371094 C 169.164062 62.0625 167.0625 70.253906 161.824219 76.945312 C 156.84375 83.292969 150.1875 86.980469 141.859375 88.011719 C 137.222656 88.613281 133.699219 90.84375 131.296875 94.703125 C 129.234375 98.046875 123.78125 99.722656 114.933594 99.722656 C 108.066406 99.722656 102.867188 99.121094 99.347656 97.921875 C 99.695312 97.316406 101.28125 95.476562 104.113281 92.386719 C 106.519531 89.898438 107.722656 87.710938 107.722656 85.820312 C 104.371094 86.683594 100.722656 88.4375 96.773438 91.101562 C 93.507812 93.328125 88.316406 94.960938 81.1875 95.988281 C 83.164062 97.535156 85.007812 98.945312 86.726562 100.234375 C 87.582031 101.003906 88.015625 101.902344 88.015625 102.9375 C 88.015625 106.710938 85.695312 109.324219 81.058594 110.785156 C 74.789062 112.757812 69.894531 116.488281 66.375 121.980469 L 55.554688 125.582031 C 56.925781 122.152344 60.363281 114.558594 65.859375 102.808594 C 68.09375 98.085938 69.207031 93.5 69.207031 89.035156 C 69.207031 88.007812 68.90625 86.636719 68.304688 84.917969 C 67.617188 83.203125 67.148438 82.046875 66.890625 81.445312 C 67.746094 82.214844 69.464844 86.03125 72.042969 92.894531 L 73.070312 94.179688 C 75.21875 91.09375 80.328125 85.519531 88.398438 77.453125 C 94.152344 71.621094 97.5 66.347656 98.449219 61.628906 L 98.960938 61.113281 C 101.195312 58.539062 103.8125 55.625 106.820312 52.363281 C 108.707031 49.960938 109.394531 47.386719 108.882812 44.644531 C 110.085938 46.960938 114.203125 56.738281 121.246094 73.980469 L 122.019531 75.140625 C 122.191406 74.109375 122.28125 72.734375 122.28125 71.019531 C 122.28125 61.328125 121.464844 53.390625 119.832031 47.214844 C 118.113281 40.265625 115.195312 34.605469 111.074219 30.230469 L 106.820312 30.367188 L 106.949219 34.484375 L 108.496094 41.691406 C 104.371094 34.570312 101.796875 30.453125 100.765625 29.335938 C 97.160156 26.847656 93.421875 24.960938 89.558594 23.675781 L 85.050781 22.773438 L 101.28125 22.519531 C 110.296875 22.519531 117.382812 23.847656 122.535156 26.507812 C 123.824219 27.449219 125.15625 28.777344 126.527344 30.496094 L 124.597656 30.367188 L 124.597656 62.535156 C 125.714844 65.707031 126.789062 69.613281 127.816406 74.246094 C 128.761719 78.535156 129.234375 81.363281 129.234375 82.738281 L 129.234375 84.285156 C 135.847656 84.714844 140.226562 83.167969 142.375 79.652344 C 143.402344 78.019531 144.351562 74.03125 145.207031 67.683594 L 147.011719 69.230469 C 148.46875 70.34375 149.886719 71.246094 151.261719 71.933594 C 152.894531 68.929688 153.921875 66.015625 154.351562 63.183594 C 154.523438 61.984375 154.609375 60.054688 154.609375 57.394531 L 154.222656 48.515625 C 149.242188 50.230469 145.894531 51.816406 144.179688 53.277344 C 144.867188 51.558594 146.324219 49.84375 148.558594 48.128906 C 150.191406 46.925781 151.003906 44.824219 151.003906 41.824219 C 148.511719 36.59375 147.097656 33.332031 146.757812 32.042969 L 146.757812 31.652344 C 148.644531 31.570312 152.292969 30.882812 157.703125 29.59375 C 163.367188 28.222656 166.972656 27.105469 168.519531 26.25 Z M 25.027344 86.210938 C 25.625 85.953125 27.472656 84.839844 30.566406 82.867188 C 32.710938 81.578125 35.589844 80.589844 39.195312 79.90625 C 38.25 87.367188 37.347656 94.488281 36.488281 101.265625 C 35.976562 104.867188 34.988281 109.074219 33.527344 113.875 C 32.066406 112.847656 30.21875 109.074219 27.988281 102.550781 C 25.585938 95.515625 24.59375 90.070312 25.027344 86.210938 Z M 25.027344 86.210938 "/>
<path style=" stroke:none;fill-rule:evenodd;fill:rgb(70.196078%,66.666667%,61.960784%);fill-opacity:1;" d="M 2.742188 80.679688 L 2.871094 79.648438 L 3 79.648438 C 2.914062 79.992188 2.828125 80.335938 2.742188 80.679688 Z M 2.742188 80.933594 C 2.828125 80.503906 2.957031 80.074219 3.128906 79.648438 L 6.992188 80.164062 L 9.570312 81.449219 C 13.605469 84.621094 17.039062 89.082031 19.875 94.828125 C 22.792969 101.003906 24.253906 107.140625 24.253906 113.230469 C 24.253906 114.347656 24.082031 114.988281 23.738281 115.160156 C 23.566406 115.246094 23.351562 115.203125 23.09375 115.03125 C 22.835938 114.945312 22.535156 114.769531 22.191406 114.515625 C 20.304688 113.230469 16.871094 110.226562 11.886719 105.507812 C 6.734375 100.53125 3.726562 97.359375 2.871094 95.988281 L 2.355469 95.472656 L 0.808594 90.324219 L 1.839844 83.761719 C 1.839844 83.421875 1.925781 83.121094 2.097656 82.863281 C 2.097656 82.519531 2.183594 82.21875 2.355469 81.960938 C 2.441406 81.703125 2.527344 81.402344 2.613281 81.058594 C 2.613281 80.980469 2.65625 80.933594 2.742188 80.933594 Z M 16.910156 50.695312 C 17.082031 51.296875 17.640625 51.683594 18.585938 51.855469 C 22.019531 51.511719 24.296875 50.78125 25.414062 49.667969 L 17.683594 48.507812 Z M 46.664062 28.4375 C 45.035156 27.75 43.058594 27.40625 40.742188 27.40625 C 38.421875 27.40625 36.488281 27.75 34.945312 28.4375 C 33.3125 29.125 32.496094 29.9375 32.496094 30.882812 C 32.496094 31.824219 33.3125 32.640625 34.945312 33.328125 C 36.488281 34.011719 38.421875 34.355469 40.742188 34.355469 C 43.058594 34.355469 45.035156 34.011719 46.664062 33.328125 C 48.210938 32.640625 48.984375 31.824219 48.984375 30.882812 C 48.984375 29.9375 48.210938 29.125 46.664062 28.4375 Z M 100.765625 29.335938 C 99.738281 30.710938 97.847656 36.628906 95.097656 47.09375 C 92.867188 55.5 88.1875 62.277344 81.058594 67.425781 C 76.679688 70.597656 70.925781 72.785156 63.796875 73.988281 C 57.527344 75.105469 51.175781 75.359375 44.734375 74.757812 C 39.582031 74.246094 34.644531 75.105469 29.921875 77.332031 C 24.855469 79.820312 21.675781 81.0625 20.390625 81.0625 C 19.617188 81.0625 17.339844 80.207031 13.5625 78.492188 C 9.78125 76.6875 7.078125 75.105469 5.445312 73.730469 C 6.304688 71.582031 7.335938 69.09375 8.539062 66.265625 C 13.605469 54.171875 17.984375 46.109375 21.675781 42.074219 C 24.851562 38.558594 28.203125 33.371094 31.722656 26.507812 C 34.988281 19.988281 37.21875 16.167969 38.421875 15.054688 C 40.398438 13.339844 42.886719 12.609375 45.894531 12.867188 C 53.363281 13.382812 59.804688 13.511719 65.214844 13.253906 C 68.222656 13.167969 75.992188 10.894531 88.527344 6.433594 C 100.636719 2.144531 111.027344 0 119.699219 0 C 124.507812 0 134.296875 1.800781 149.066406 5.402344 C 164.007812 9.007812 173.199219 11.882812 176.632812 14.023438 C 176.632812 14.539062 176.847656 15.269531 177.277344 16.210938 C 177.621094 17.15625 177.792969 17.757812 177.792969 18.015625 C 177.445312 18.527344 176.546875 19.601562 175.085938 21.230469 C 173.710938 22.773438 172.769531 23.71875 172.25 24.0625 C 167.699219 25.089844 163.535156 26.25 159.753906 27.535156 C 158.039062 28.136719 155.503906 28.4375 152.15625 28.4375 C 138.246094 27.492188 128.371094 26.847656 122.53125 26.507812 C 117.378906 23.847656 110.292969 22.519531 101.277344 22.519531 L 85.046875 22.773438 L 89.554688 23.675781 C 93.421875 24.960938 97.160156 26.847656 100.765625 29.335938 Z M 157.699219 12.738281 C 157.699219 11.710938 157.613281 11.109375 157.441406 10.9375 L 157.054688 11.066406 L 157.054688 14.28125 L 118.414062 14.539062 C 119.699219 15.140625 122.320312 15.742188 126.269531 16.339844 C 131.59375 17.199219 137.390625 17.628906 143.660156 17.628906 C 153.019531 17.628906 157.699219 16 157.699219 12.738281 Z M 56.714844 47.738281 L 55.683594 38.988281 C 47.007812 41.644531 41.46875 43.832031 39.066406 45.550781 C 38.636719 45.808594 37.433594 47.308594 35.460938 50.054688 C 36.574219 51.683594 37.691406 52.839844 38.808594 53.527344 C 40.355469 54.472656 42.242188 54.941406 44.476562 54.941406 C 52.636719 54.941406 56.714844 52.542969 56.714844 47.738281 Z M 57.871094 53.914062 L 63.667969 54.042969 C 65.214844 54.042969 67.402344 53.699219 70.238281 53.011719 C 73.246094 52.324219 75.519531 51.554688 77.066406 50.695312 Z M 53.621094 28.824219 C 53.621094 29.851562 54.179688 30.753906 55.296875 31.523438 C 56.328125 32.296875 57.570312 32.683594 59.03125 32.683594 C 60.488281 32.683594 61.777344 32.296875 62.894531 31.523438 C 63.925781 30.753906 64.441406 29.851562 64.441406 28.824219 C 64.441406 27.792969 63.925781 26.894531 62.894531 26.121094 C 61.777344 25.347656 60.488281 24.960938 59.03125 24.960938 C 57.570312 24.960938 56.328125 25.347656 55.296875 26.121094 C 54.179688 26.894531 53.621094 27.792969 53.621094 28.824219 Z M 45.765625 79.777344 C 46.28125 79.691406 46.710938 79.691406 47.050781 79.777344 L 48.726562 79.777344 C 48.984375 80.464844 49.242188 81.148438 49.5 81.835938 C 55.941406 98.476562 57.660156 108.726562 54.652344 112.589844 C 52.074219 115.933594 49.585938 117.605469 47.179688 117.605469 C 44.605469 117.605469 41.769531 117.347656 38.679688 116.835938 C 38.851562 116.234375 38.808594 112.976562 38.550781 107.054688 C 38.292969 100.964844 39.023438 95 40.742188 89.171875 C 42.285156 84.28125 43.960938 81.148438 45.765625 79.777344 Z M 45.765625 79.777344 "/>
<path style=" stroke:none;fill-rule:evenodd;fill:rgb(82.352941%,78.431373%,72.941176%);fill-opacity:1;" d="M 2.742188 80.933594 L 2.742188 80.679688 C 2.828125 80.335938 2.914062 79.992188 3 79.652344 L 3.128906 79.652344 C 2.957031 80.074219 2.828125 80.503906 2.742188 80.933594 Z M 100.765625 29.335938 C 101.796875 30.453125 104.371094 34.570312 108.496094 41.691406 L 108.882812 44.648438 C 109.394531 47.394531 108.710938 49.964844 106.820312 52.371094 C 103.8125 55.628906 101.195312 58.546875 98.960938 61.121094 L 97.804688 62.277344 C 91.621094 66.652344 86.984375 69.871094 83.890625 71.929688 C 78.398438 75.617188 72.300781 78.445312 65.601562 80.421875 C 64.65625 80.503906 61.996094 80.464844 57.613281 80.292969 C 54.523438 80.207031 52.121094 80.074219 50.402344 79.90625 C 49.714844 79.90625 49.15625 79.863281 48.726562 79.777344 L 47.050781 79.777344 C 46.710938 79.691406 46.28125 79.691406 45.765625 79.777344 C 44.304688 79.777344 42.113281 79.820312 39.195312 79.90625 C 35.589844 80.59375 32.710938 81.578125 30.566406 82.867188 C 27.472656 84.839844 25.625 85.953125 25.027344 86.210938 C 24.425781 86.210938 21.804688 85.484375 17.167969 84.023438 C 12.875 82.648438 10.339844 81.792969 9.570312 81.449219 L 6.992188 80.164062 L 3.386719 78.234375 C 4.160156 75.316406 4.675781 73.640625 4.929688 73.214844 L 5.445312 73.730469 C 7.078125 75.101562 9.785156 76.6875 13.5625 78.492188 C 17.339844 80.207031 19.617188 81.0625 20.390625 81.0625 C 21.675781 81.0625 24.851562 79.820312 29.921875 77.332031 C 34.644531 75.105469 39.582031 74.246094 44.734375 74.757812 C 51.175781 75.359375 57.53125 75.105469 63.796875 73.988281 C 70.925781 72.785156 76.679688 70.601562 81.058594 67.425781 C 88.1875 62.277344 92.863281 55.5 95.097656 47.09375 C 97.847656 36.628906 99.734375 30.710938 100.765625 29.335938 Z M 46.664062 28.4375 C 48.210938 29.125 48.984375 29.9375 48.984375 30.882812 C 48.984375 31.824219 48.210938 32.640625 46.664062 33.328125 C 45.035156 34.011719 43.058594 34.355469 40.742188 34.355469 C 38.421875 34.355469 36.488281 34.011719 34.945312 33.328125 C 33.3125 32.640625 32.496094 31.824219 32.496094 30.882812 C 32.496094 29.9375 33.3125 29.125 34.945312 28.4375 C 36.488281 27.75 38.421875 27.40625 40.742188 27.40625 C 43.058594 27.40625 45.035156 27.75 46.664062 28.4375 Z M 16.910156 50.695312 L 17.683594 48.507812 L 25.414062 49.667969 C 24.296875 50.785156 22.023438 51.511719 18.585938 51.855469 C 17.640625 51.683594 17.082031 51.296875 16.910156 50.695312 Z M 157.699219 12.738281 C 157.699219 16 153.019531 17.628906 143.660156 17.628906 C 137.390625 17.628906 131.59375 17.199219 126.269531 16.339844 C 122.320312 15.742188 119.699219 15.140625 118.414062 14.539062 L 157.054688 14.28125 L 157.054688 11.066406 L 157.441406 10.9375 C 157.613281 11.109375 157.699219 11.710938 157.699219 12.738281 Z M 146.75 32.039062 C 142.457031 32.382812 135.714844 31.867188 126.523438 30.496094 C 125.152344 28.777344 123.820312 27.449219 122.53125 26.507812 C 128.371094 26.847656 138.246094 27.492188 152.160156 28.4375 C 155.507812 28.4375 158.039062 28.136719 159.757812 27.535156 C 163.539062 26.25 167.699219 25.089844 172.253906 24.0625 L 168.519531 26.25 C 166.972656 27.105469 163.367188 28.222656 157.703125 29.59375 C 152.289062 30.882812 148.640625 31.570312 146.753906 31.652344 L 146.753906 32.039062 Z M 53.621094 28.824219 C 53.621094 27.792969 54.179688 26.894531 55.296875 26.121094 C 56.328125 25.347656 57.570312 24.960938 59.03125 24.960938 C 60.488281 24.960938 61.777344 25.347656 62.894531 26.121094 C 63.925781 26.894531 64.441406 27.792969 64.441406 28.824219 C 64.441406 29.851562 63.925781 30.753906 62.894531 31.523438 C 61.777344 32.296875 60.488281 32.683594 59.03125 32.683594 C 57.570312 32.683594 56.328125 32.296875 55.296875 31.523438 C 54.179688 30.753906 53.621094 29.851562 53.621094 28.824219 Z M 57.871094 53.914062 L 77.066406 50.695312 C 75.519531 51.554688 73.246094 52.324219 70.238281 53.011719 C 67.402344 53.699219 65.214844 54.042969 63.667969 54.042969 Z M 56.714844 47.738281 C 56.714844 52.542969 52.636719 54.941406 44.476562 54.941406 C 42.242188 54.941406 40.355469 54.46875 38.808594 53.527344 C 37.691406 52.839844 36.574219 51.683594 35.460938 50.054688 C 37.433594 47.308594 38.636719 45.808594 39.066406 45.550781 C 41.46875 43.832031 47.007812 41.644531 55.683594 38.988281 Z M 56.714844 47.738281 "/>
<path style=" stroke:none;fill-rule:evenodd;fill:rgb(38.823529%,35.686275%,32.156863%);fill-opacity:1;" d="M 82.089844 116.707031 L 66.375 121.984375 C 69.894531 116.492188 74.789062 112.761719 81.058594 110.789062 C 85.695312 109.332031 88.015625 106.714844 88.015625 102.9375 C 88.015625 101.910156 87.582031 101.007812 86.726562 100.234375 C 85.007812 98.949219 83.164062 97.535156 81.1875 95.988281 C 88.316406 94.964844 93.507812 93.332031 96.773438 91.101562 C 100.722656 88.441406 104.371094 86.683594 107.722656 85.824219 C 107.722656 87.710938 106.519531 89.902344 104.113281 92.390625 C 101.28125 95.476562 99.695312 97.320312 99.347656 97.921875 C 102.867188 99.121094 108.066406 99.722656 114.933594 99.722656 C 123.78125 99.722656 129.234375 98.046875 131.296875 94.703125 C 133.699219 90.84375 137.222656 88.613281 141.859375 88.011719 C 150.1875 86.984375 156.84375 83.292969 161.824219 76.945312 C 167.0625 70.253906 169.167969 62.0625 168.136719 52.371094 L 175.089844 55.84375 C 175.78125 50.097656 176.121094 46.019531 176.121094 43.621094 C 176.121094 41.5625 175.820312 39.332031 175.21875 36.929688 C 164.3125 36.757812 157.183594 36.070312 153.835938 34.871094 L 154.609375 34.871094 C 158.730469 36.5 162.035156 35.855469 164.527344 32.941406 C 165.898438 31.394531 167.230469 29.167969 168.519531 26.25 L 172.253906 24.0625 C 172.769531 23.71875 173.714844 22.773438 175.089844 21.230469 C 176.550781 19.601562 177.449219 18.527344 177.792969 18.015625 L 182.300781 19.945312 C 183.675781 21.917969 185.4375 24.878906 187.582031 28.824219 L 189.644531 34.742188 L 190.417969 38.472656 C 190.933594 41.214844 191.191406 43.105469 191.191406 44.132812 C 191.191406 49.28125 188.058594 59.660156 181.789062 75.273438 C 181.101562 77.160156 178.398438 80.589844 173.675781 85.566406 C 168.695312 90.882812 164.875 94.1875 162.214844 95.476562 C 156.199219 98.476562 149.417969 100.792969 141.863281 102.421875 C 134.132812 103.878906 128.894531 104.867188 126.148438 105.382812 L 82.351562 116.578125 C 82.261719 116.578125 82.171875 116.617188 82.089844 116.707031 Z M 145.207031 67.683594 C 142.972656 62.878906 141.855469 60.433594 141.855469 60.347656 C 141.855469 57.945312 142.628906 55.585938 144.175781 53.269531 C 145.890625 51.8125 149.238281 50.222656 154.21875 48.507812 L 154.605469 57.386719 C 154.605469 60.050781 154.519531 61.980469 154.34375 63.179688 C 153.917969 66.011719 152.886719 68.925781 151.257812 71.929688 C 149.882812 71.242188 148.464844 70.339844 147.007812 69.226562 Z M 108.882812 44.648438 L 108.496094 41.691406 L 106.949219 34.484375 L 106.820312 30.367188 L 111.066406 30.238281 C 115.191406 34.613281 118.109375 40.273438 119.828125 47.222656 C 121.457031 53.398438 122.273438 61.332031 122.273438 71.027344 C 122.273438 72.742188 122.1875 74.117188 122.015625 75.148438 L 121.242188 73.988281 C 114.207031 56.746094 110.085938 46.964844 108.882812 44.648438 Z M 66.890625 81.449219 L 65.601562 80.421875 C 72.300781 78.445312 78.398438 75.617188 83.890625 71.929688 C 86.984375 69.871094 91.621094 66.652344 97.804688 62.277344 L 98.449219 61.632812 C 97.5 66.351562 94.152344 71.628906 88.398438 77.457031 C 80.328125 85.523438 75.21875 91.101562 73.070312 94.1875 L 72.042969 92.898438 C 69.464844 86.039062 67.746094 82.222656 66.890625 81.449219 Z M 66.890625 81.449219 "/>
<path style=" stroke:none;fill-rule:evenodd;fill:rgb(60.784314%,57.254902%,52.54902%);fill-opacity:1;" d="M 66.375 121.980469 L 82.089844 116.703125 C 80.800781 117.21875 77.066406 118.546875 70.882812 120.695312 C 64.183594 122.921875 59.074219 124.554688 55.554688 125.582031 C 52.378906 126.527344 49.285156 126.996094 46.28125 126.996094 C 45.335938 126.996094 43.617188 126.097656 41.128906 124.296875 C 37.261719 121.550781 32.585938 118.933594 27.085938 116.445312 L 25.542969 115.929688 C 24.941406 115.675781 24.339844 115.417969 23.738281 115.160156 C 24.082031 114.988281 24.253906 114.347656 24.253906 113.230469 C 24.253906 107.140625 22.792969 101.003906 19.875 94.828125 C 17.039062 89.082031 13.605469 84.621094 9.570312 81.449219 C 10.339844 81.792969 12.875 82.648438 17.167969 84.023438 C 21.804688 85.480469 24.421875 86.210938 25.027344 86.210938 C 24.59375 90.070312 25.585938 95.515625 27.988281 102.550781 C 30.222656 109.074219 32.066406 112.847656 33.527344 113.875 C 34.984375 109.074219 35.976562 104.867188 36.488281 101.265625 C 37.347656 94.488281 38.25 87.371094 39.195312 79.90625 C 42.113281 79.820312 44.304688 79.777344 45.765625 79.777344 C 43.960938 81.148438 42.285156 84.28125 40.742188 89.171875 C 39.023438 95.003906 38.292969 100.964844 38.550781 107.054688 C 38.808594 112.976562 38.851562 116.234375 38.679688 116.835938 C 41.769531 117.347656 44.605469 117.605469 47.179688 117.605469 C 49.585938 117.605469 52.074219 115.933594 54.652344 112.589844 C 57.660156 108.726562 55.941406 98.476562 49.5 81.835938 C 49.242188 81.148438 48.984375 80.464844 48.726562 79.777344 C 49.15625 79.863281 49.714844 79.90625 50.402344 79.90625 C 52.121094 80.074219 54.523438 80.207031 57.613281 80.292969 C 61.996094 80.460938 64.65625 80.503906 65.601562 80.421875 L 66.890625 81.449219 C 67.148438 82.050781 67.617188 83.207031 68.304688 84.925781 C 68.90625 86.640625 69.207031 88.011719 69.207031 89.042969 C 69.207031 93.5 68.09375 98.09375 65.859375 102.8125 C 60.363281 114.5625 56.925781 122.15625 55.554688 125.585938 Z M 2.871094 95.988281 C 3.726562 97.363281 6.734375 100.539062 11.886719 105.511719 C 16.871094 110.230469 20.304688 113.230469 22.191406 114.519531 C 17.382812 112.375 13.949219 110.359375 11.886719 108.472656 C 9.570312 106.324219 6.5625 102.167969 2.871094 95.988281 Z M 3 79.648438 L 2.871094 79.648438 L 3.257812 78.234375 L 3.386719 78.234375 L 6.992188 80.164062 L 3.128906 79.648438 Z M 126.527344 30.496094 C 135.714844 31.867188 142.460938 32.382812 146.753906 32.039062 C 147.097656 33.328125 148.511719 36.585938 151 41.820312 C 151 44.820312 150.1875 46.921875 148.554688 48.125 C 146.324219 49.839844 144.863281 51.554688 144.175781 53.269531 C 142.628906 55.585938 141.859375 57.945312 141.859375 60.347656 C 141.859375 60.433594 142.976562 62.878906 145.207031 67.683594 C 144.351562 74.03125 143.40625 78.019531 142.375 79.648438 C 140.226562 83.164062 135.847656 84.710938 129.234375 84.28125 L 129.234375 82.738281 C 129.234375 81.363281 128.761719 78.53125 127.816406 74.242188 C 126.789062 69.609375 125.714844 65.707031 124.597656 62.53125 L 124.597656 30.367188 Z M 126.527344 30.496094 "/>
</g>
</svg>
