<?xml version="1.0" encoding="UTF-8"?>
<svg xmlns="http://www.w3.org/2000/svg" xmlns:xlink="http://www.w3.org/1999/xlink" width="192px" height="256px" viewBox="0 0 192 155" version="1.1">
<defs>
<linearGradient id="linear0" gradientUnits="userSpaceOnUse" x1="-157.42" y1="651.79" x2="-156.47" y2="651.79" gradientTransform="matrix(0.355446,1.859591,1.861891,-0.355007,-1049.7243,610.755698)">
<stop offset="0" style="stop-color:rgb(64.705882%,65.098039%,65.882353%);stop-opacity:1;"/>
<stop offset="0.3258" style="stop-color:rgb(60.784314%,61.176471%,62.352941%);stop-opacity:1;"/>
<stop offset="1" style="stop-color:rgb(92.941176%,92.941176%,92.941176%);stop-opacity:1;"/>
</linearGradient>
<radialGradient id="radial0" gradientUnits="userSpaceOnUse" cx="-137.75" cy="626.79" fx="-137.75" fy="626.79" r="0.9511" gradientTransform="matrix(-247.001939,-24.117249,24.147078,-246.696815,-49154.6676,151466.817053)">
<stop offset="0" style="stop-color:rgb(100%,100%,100%);stop-opacity:1;"/>
<stop offset="1" style="stop-color:rgb(12.941176%,11.764706%,12.156863%);stop-opacity:1;"/>
</radialGradient>
<radialGradient id="radial1" gradientUnits="userSpaceOnUse" cx="-138.39" cy="628.67" fx="-138.39" fy="628.67" r="0.9506" gradientTransform="matrix(-22.133081,-2.160994,2.163667,-22.10574,-4301.118992,13732.812568)">
<stop offset="0" style="stop-color:rgb(100%,100%,100%);stop-opacity:1;"/>
<stop offset="1" style="stop-color:rgb(12.941176%,11.764706%,12.156863%);stop-opacity:1;"/>
</radialGradient>
<linearGradient id="linear1" gradientUnits="userSpaceOnUse" x1="-138.31" y1="626.25" x2="-137.36" y2="626.25" gradientTransform="matrix(-51.690446,34.237889,34.280236,51.626592,-28525.245499,-27557.034806)">
<stop offset="0" style="stop-color:rgb(100%,100%,100%);stop-opacity:1;"/>
<stop offset="1" style="stop-color:rgb(63.921569%,64.313725%,65.490196%);stop-opacity:1;"/>
</linearGradient>
<linearGradient id="linear2" gradientUnits="userSpaceOnUse" x1="-138.04" y1="626.85" x2="-137.09" y2="626.85" gradientTransform="matrix(-89.304298,59.823655,-59.897647,-89.193979,25315.486922,64195.421626)">
<stop offset="0" style="stop-color:rgb(100%,100%,100%);stop-opacity:1;"/>
<stop offset="1" style="stop-color:rgb(63.921569%,64.313725%,65.490196%);stop-opacity:1;"/>
</linearGradient>
<linearGradient id="linear3" gradientUnits="userSpaceOnUse" x1="-141.88" y1="651.76" x2="-140.93" y2="651.76" gradientTransform="matrix(1.885368,1.595695,1.597669,-1.883039,-653.590053,1510.197045)">
<stop offset="0" style="stop-color:rgb(91.372549%,91.372549%,91.764706%);stop-opacity:1;"/>
<stop offset="0.3258" style="stop-color:rgb(60.784314%,61.176471%,62.352941%);stop-opacity:1;"/>
<stop offset="1" style="stop-color:rgb(92.941176%,92.941176%,92.941176%);stop-opacity:1;"/>
</linearGradient>
<radialGradient id="radial2" gradientUnits="userSpaceOnUse" cx="-137.61" cy="626.44" fx="-137.61" fy="626.44" r="0.9479" gradientTransform="matrix(-157.578264,-191.488355,-191.725195,157.383606,98536.157229,-124987.820206)">
<stop offset="0" style="stop-color:rgb(100%,100%,100%);stop-opacity:1;"/>
<stop offset="1" style="stop-color:rgb(12.941176%,11.764706%,12.156863%);stop-opacity:1;"/>
</radialGradient>
<radialGradient id="radial3" gradientUnits="userSpaceOnUse" cx="-136.75" cy="624.79" fx="-136.75" fy="624.79" r="0.951" gradientTransform="matrix(-14.120365,-17.159185,-17.180408,14.102922,8961.76797,-11091.371175)">
<stop offset="0" style="stop-color:rgb(100%,100%,100%);stop-opacity:1;"/>
<stop offset="1" style="stop-color:rgb(12.941176%,11.764706%,12.156863%);stop-opacity:1;"/>
</radialGradient>
<linearGradient id="linear4" gradientUnits="userSpaceOnUse" x1="-136.63" y1="623.87" x2="-135.68" y2="623.87" gradientTransform="matrix(-10.724574,-12.318447,-12.333683,10.711326,6310.095857,-8283.007776)">
<stop offset="0" style="stop-color:rgb(76.862745%,76.862745%,76.862745%);stop-opacity:1;"/>
<stop offset="1" style="stop-color:rgb(49.019608%,49.411765%,50.196078%);stop-opacity:1;"/>
</linearGradient>
<linearGradient id="linear5" gradientUnits="userSpaceOnUse" x1="-136.63" y1="624.63" x2="-135.68" y2="624.63" gradientTransform="matrix(-10.724574,-12.318447,-12.333683,10.711326,6310.095857,-8283.007776)">
<stop offset="0" style="stop-color:rgb(100%,100%,100%);stop-opacity:1;"/>
<stop offset="1" style="stop-color:rgb(63.921569%,64.313725%,65.490196%);stop-opacity:1;"/>
</linearGradient>
<linearGradient id="linear6" gradientUnits="userSpaceOnUse" x1="-138.93" y1="627.19" x2="-137.99" y2="627.19" gradientTransform="matrix(-2.959069,33.525987,33.567453,2.955414,-21414.327373,2861.768505)">
<stop offset="0" style="stop-color:rgb(100%,100%,100%);stop-opacity:1;"/>
<stop offset="1" style="stop-color:rgb(60.784314%,61.176471%,62.352941%);stop-opacity:1;"/>
</linearGradient>
<linearGradient id="linear7" gradientUnits="userSpaceOnUse" x1="-137.26" y1="626.37" x2="-136.32" y2="626.37" gradientTransform="matrix(0.0327293,-107.396427,-107.529259,-0.0326889,67418.429337,-14615.114602)">
<stop offset="0" style="stop-color:rgb(100%,100%,100%);stop-opacity:1;"/>
<stop offset="1" style="stop-color:rgb(63.921569%,64.313725%,65.490196%);stop-opacity:1;"/>
</linearGradient>
<radialGradient id="radial4" gradientUnits="userSpaceOnUse" cx="-122.74" cy="620.47" fx="-122.74" fy="620.47" r="0.9502" gradientTransform="matrix(0.283323,-2.894606,-2.898187,-0.282973,1922.227624,-106.671111)">
<stop offset="0" style="stop-color:rgb(100%,100%,100%);stop-opacity:1;"/>
<stop offset="1" style="stop-color:rgb(66.27451%,66.666667%,67.45098%);stop-opacity:1;"/>
</radialGradient>
<linearGradient id="linear8" gradientUnits="userSpaceOnUse" x1="-142.84" y1="627.82" x2="-141.89" y2="627.82" gradientTransform="matrix(-0.365245,8.122544,8.13259,0.364794,-5087.965759,992.291713)">
<stop offset="0" style="stop-color:rgb(100%,100%,100%);stop-opacity:1;"/>
<stop offset="1" style="stop-color:rgb(60.784314%,61.176471%,62.352941%);stop-opacity:1;"/>
</linearGradient>
<linearGradient id="linear9" gradientUnits="userSpaceOnUse" x1="-142.84" y1="630.15" x2="-141.89" y2="630.15" gradientTransform="matrix(-0.365245,8.122544,8.13259,0.364794,-5087.965759,992.291713)">
<stop offset="0" style="stop-color:rgb(76.862745%,76.862745%,76.862745%);stop-opacity:1;"/>
<stop offset="1" style="stop-color:rgb(46.666667%,47.058824%,47.843137%);stop-opacity:1;"/>
</linearGradient>
</defs>
<g id="surface1">
<path style=" stroke:none;fill-rule:nonzero;fill:rgb(76.862745%,76.862745%,76.862745%);fill-opacity:1;" d="M 88.3125 83.558594 C 95.1875 91.023438 106.546875 101.730469 115.53125 112.203125 C 115.53125 112.203125 118.886719 116.730469 117.503906 118.585938 C 117.363281 118.78125 117.238281 118.953125 117.125 119.105469 C 115.738281 119.628906 114.410156 120.382812 113.203125 121.375 C 107.8125 125.800781 105.710938 133.265625 108.714844 139.800781 C 108.878906 140.160156 109.992188 142.414062 111.101562 143.851562 C 111.949219 144.953125 113.84375 146.726562 114.09375 146.914062 C 120.566406 151.707031 128.09375 151.773438 134.046875 146.890625 C 140 142.011719 140.855469 133.230469 135.964844 127.292969 C 135.574219 126.816406 132.019531 122.375 131.582031 121.964844 C 131.582031 121.964844 122.347656 112.066406 119.265625 108.765625 C 116.1875 105.472656 108.316406 95.90625 105.488281 92.03125 C 102.671875 88.160156 100.878906 83.621094 101.210938 82.253906 C 101.542969 80.890625 102.109375 77.144531 102.109375 77.144531 C 102.109375 77.144531 90.550781 64.5 77.308594 53.058594 C 63.378906 41.03125 55.515625 34.058594 49.25 29.835938 C 38.488281 22.589844 35.738281 24.082031 35.738281 24.082031 L 88.308594 83.558594 M 129.597656 125.027344 C 129.941406 125.351562 132.921875 128.296875 133.800781 129.945312 C 136.355469 134.722656 136.625 140.402344 131.898438 144.28125 C 127.167969 148.164062 121.417969 148.320312 115.921875 144.148438 C 115.726562 143.996094 114.40625 142.550781 113.730469 141.679688 C 112.851562 140.527344 111.898438 139.003906 111.769531 138.714844 C 109.488281 133.636719 111.042969 127.511719 115.328125 123.996094 C 119.679688 120.417969 125.597656 121.273438 129.597656 125.023438 "/>
<path style=" stroke:none;fill-rule:nonzero;fill:url(#linear0);" d="M 89.207031 65.878906 C 89.246094 65.917969 89.28125 65.953125 89.320312 65.988281 L 89.707031 66.039062 C 89.667969 66 89.625 65.964844 89.582031 65.925781 L 89.203125 65.878906 M 81.394531 58.363281 C 83.691406 60.5625 85.085938 61.9375 85.144531 61.992188 C 85.542969 62.371094 85.933594 62.742188 86.316406 63.105469 C 86.378906 63.09375 86.433594 63.078125 86.484375 63.0625 C 84.8125 61.515625 83.097656 59.933594 81.394531 58.367188 M 133.34375 127.640625 C 133.882812 128.292969 134.363281 128.945312 134.65625 129.492188 C 137.859375 135.492188 137.0625 141.300781 132.511719 145.035156 C 127.308594 149.304688 121.082031 149.222656 115.332031 144.921875 C 114.78125 144.511719 113.992188 143.535156 113.289062 142.683594 C 113.167969 142.535156 113.054688 142.398438 112.960938 142.277344 C 112.042969 141.078125 111.046875 139.484375 110.882812 139.113281 C 108.460938 133.726562 110.074219 127.058594 114.710938 123.253906 C 119.230469 119.542969 125.625 119.980469 130.257812 124.320312 C 130.28125 124.347656 131.992188 126 133.339844 127.640625 M 112.023438 143.464844 C 112.863281 144.484375 114.460938 145.988281 114.667969 146.144531 C 120.839844 150.714844 127.859375 150.714844 133.425781 146.148438 C 136.101562 143.949219 137.761719 140.84375 138.097656 137.398438 C 138.4375 133.953125 137.40625 130.585938 135.207031 127.914062 L 134.59375 127.15625 C 133.46875 125.761719 132.601562 124.6875 131.984375 123.941406 C 131.367188 123.191406 131.011719 122.769531 130.910156 122.679688 C 130.875 122.640625 122.253906 113.402344 118.550781 109.4375 C 116.996094 107.773438 114.25 104.546875 111.527344 101.242188 C 108.8125 97.941406 106.125 94.5625 104.699219 92.605469 C 103.421875 90.851562 102.292969 88.875 101.484375 87.078125 L 94.769531 88.921875 C 95.902344 90.078125 97.082031 91.273438 98.28125 92.492188 C 104.070312 98.363281 110.625 105.015625 116.261719 111.578125 C 116.730469 112.210938 119.011719 115.40625 118.777344 117.816406 C 118.722656 118.34375 118.554688 118.796875 118.273438 119.171875 L 117.722656 119.917969 L 117.460938 120.015625 C 116.136719 120.515625 114.910156 121.226562 113.808594 122.128906 C 110.742188 124.644531 108.765625 128.3125 108.382812 132.179688 C 108.144531 134.664062 108.558594 137.160156 109.589844 139.398438 C 109.796875 139.847656 110.839844 141.941406 111.863281 143.265625 C 111.914062 143.328125 111.96875 143.394531 112.023438 143.460938 "/>
<path style=" stroke:none;fill-rule:nonzero;fill:url(#radial0);" d="M 35.394531 24.027344 L 69.582031 62.699219 C 69.664062 62.707031 69.800781 62.726562 69.984375 62.75 C 56.855469 48.035156 40.640625 29.785156 36.917969 25.261719 C 36.367188 24.59375 36.089844 24.226562 36.132812 24.207031 C 36.234375 24.195312 36.359375 24.183594 36.519531 24.183594 C 36.855469 24.175781 37.21875 24.210938 37.613281 24.285156 C 37.664062 24.289062 37.71875 24.289062 37.777344 24.292969 C 38.101562 24.304688 38.59375 24.445312 39.21875 24.703125 C 41.273438 25.375 44.429688 26.855469 49.125 30.019531 C 52.183594 32.078125 55.609375 34.78125 59.953125 38.425781 C 62.070312 40.105469 64.183594 41.867188 66.214844 43.660156 C 67.15625 44.492188 68.171875 45.402344 69.246094 46.378906 C 70.242188 47.234375 71.269531 48.128906 72.339844 49.054688 L 77.164062 53.222656 C 80.429688 56.046875 83.605469 58.949219 86.523438 61.722656 C 86.328125 61.390625 86.070312 61.046875 85.820312 60.746094 C 85.390625 60.21875 84.980469 59.8125 84.980469 59.8125 L 91.710938 66.183594 L 91.0625 66.105469 C 91.109375 66.152344 91.15625 66.195312 91.203125 66.242188 L 91.910156 66.335938 C 87.769531 62.246094 82.730469 57.460938 77.445312 52.898438 L 72.621094 48.726562 C 61.5625 39.152344 54.882812 33.375 49.367188 29.65625 C 38.621094 22.421875 35.753906 23.832031 35.636719 23.894531 L 35.398438 24.03125 M 111.109375 144.214844 C 112.011719 145.3125 113.691406 146.890625 113.96875 147.09375 C 120.613281 152.015625 128.167969 152.003906 134.1875 147.066406 C 137.109375 144.664062 138.917969 141.277344 139.289062 137.519531 C 139.65625 133.757812 138.535156 130.078125 136.132812 127.164062 L 135.523438 126.40625 C 134.5625 125.21875 133.628906 124.0625 132.921875 123.207031 C 132.316406 122.472656 131.882812 121.957031 131.742188 121.824219 L 119.421875 108.628906 C 117.878906 106.976562 115.152344 103.765625 112.449219 100.488281 C 109.75 97.207031 107.082031 93.855469 105.664062 91.910156 C 102.882812 88.09375 101.097656 83.617188 101.417969 82.316406 C 101.511719 81.929688 101.625 81.363281 101.734375 80.746094 C 101.554688 80.921875 101.375 81.085938 101.203125 81.246094 C 101.132812 81.625 101.0625 81.960938 101 82.214844 C 100.984375 82.277344 100.972656 82.339844 100.96875 82.414062 C 100.8125 84.03125 102.550781 88.363281 105.316406 92.164062 C 106.738281 94.109375 109.410156 97.472656 112.117188 100.761719 C 114.824219 104.050781 117.5625 107.265625 119.109375 108.921875 L 131.4375 122.128906 C 131.578125 122.261719 132.074219 122.855469 132.6875 123.597656 C 133.515625 124.601562 134.550781 125.886719 135.191406 126.675781 L 135.800781 127.433594 C 138.128906 130.261719 139.210938 133.828125 138.855469 137.476562 C 138.5 141.117188 136.746094 144.40625 133.914062 146.730469 C 128.058594 151.535156 120.695312 151.542969 114.222656 146.746094 C 114.011719 146.589844 112.328125 145.015625 111.429688 143.925781 C 111.375 143.859375 111.320312 143.789062 111.269531 143.726562 C 110.214844 142.351562 109.125 140.179688 108.914062 139.71875 C 107.796875 137.289062 107.394531 134.667969 107.640625 132.109375 C 108.035156 128.121094 110.007812 124.285156 113.339844 121.546875 C 114.503906 120.59375 115.804688 119.839844 117.203125 119.3125 L 117.257812 119.289062 L 117.675781 118.726562 C 117.890625 118.441406 118 118.101562 118.039062 117.734375 C 118.25 115.546875 115.820312 112.242188 115.695312 112.070312 C 110.082031 105.527344 103.53125 98.882812 97.757812 93.023438 C 94.3125 89.527344 91.054688 86.222656 88.472656 83.421875 C 88.472656 83.421875 88.355469 83.289062 88.128906 83.035156 C 88.007812 82.902344 87.882812 82.769531 87.757812 82.632812 C 87.757812 82.632812 86.867188 81.640625 85.328125 79.917969 C 85.113281 79.875 84.902344 79.832031 84.683594 79.785156 L 88.15625 83.710938 C 90.742188 86.519531 93.996094 89.828125 97.449219 93.324219 C 103.222656 99.183594 109.765625 105.816406 115.355469 112.335938 C 115.386719 112.375 117.8125 115.675781 117.621094 117.671875 C 117.589844 117.972656 117.5 118.246094 117.332031 118.46875 C 117.332031 118.46875 117.035156 118.875 116.980469 118.9375 C 115.566406 119.484375 114.246094 120.242188 113.066406 121.210938 C 109.644531 124.019531 107.617188 127.96875 107.214844 132.066406 C 106.957031 134.703125 107.375 137.398438 108.519531 139.894531 C 108.738281 140.367188 109.847656 142.578125 110.929688 143.988281 C 111 144.058594 111.058594 144.128906 111.125 144.207031 "/>
<path style=" stroke:none;fill-rule:nonzero;fill:url(#radial1);" d="M 115.195312 123.832031 C 110.816406 127.425781 109.292969 133.722656 111.574219 138.804688 C 111.710938 139.105469 112.679688 140.65625 113.566406 141.8125 C 114.230469 142.675781 115.566406 144.144531 115.796875 144.320312 C 121.207031 148.433594 127.128906 148.480469 132.039062 144.449219 C 136.289062 140.960938 137.019531 135.503906 133.996094 129.84375 C 133.132812 128.230469 130.242188 125.339844 129.75 124.875 C 125.402344 120.792969 119.417969 120.367188 115.199219 123.828125 Z M 116.054688 143.976562 C 115.890625 143.851562 114.597656 142.445312 113.910156 141.550781 C 113.050781 140.433594 112.09375 138.90625 111.96875 138.625 C 111.113281 136.71875 110.8125 134.632812 111.011719 132.59375 C 111.324219 129.382812 112.878906 126.285156 115.46875 124.164062 C 119.515625 120.839844 125.265625 121.257812 129.453125 125.183594 C 129.941406 125.640625 132.777344 128.480469 133.613281 130.046875 C 136.535156 135.507812 135.84375 140.769531 131.765625 144.117188 C 127.019531 148.011719 121.296875 147.960938 116.058594 143.976562 Z M 116.054688 143.976562 "/>
<path style=" stroke:none;fill-rule:nonzero;fill:url(#linear1);" d="M 81.167969 64.902344 L 89.324219 65.988281 C 89.285156 65.953125 89.246094 65.914062 89.207031 65.878906 L 81.167969 64.898438 M 85.328125 79.914062 C 86.867188 81.632812 87.757812 82.625 87.757812 82.625 C 87.882812 82.761719 88.007812 82.898438 88.132812 83.027344 C 90.246094 85.285156 91.914062 86.722656 94.488281 88.996094 L 94.777344 88.917969 L 101.496094 87.070312 L 101.625 87.035156 L 100.347656 82.039062 C 100.089844 82.277344 99.917969 82.4375 99.890625 82.460938 L 99.8125 82.527344 L 99.714844 82.515625 C 99.699219 82.511719 99.578125 82.496094 99.363281 82.460938 L 101.386719 86.300781 L 94.527344 88.589844 C 92.441406 86.960938 85.808594 80.335938 85.808594 80.335938 L 85.933594 80.035156 C 85.722656 79.996094 85.523438 79.953125 85.324219 79.914062 M 39.988281 25.042969 C 41.96875 25.964844 44.910156 27.691406 48.332031 29.960938 C 45.179688 27.75 42.3125 26.011719 39.988281 25.042969 M 36.917969 25.261719 C 40.640625 29.789062 56.855469 48.039062 69.984375 62.75 C 71.882812 63 78.542969 63.847656 79.082031 63.726562 C 79.707031 63.585938 80.285156 62.929688 81.722656 62.863281 C 82.851562 62.8125 85.253906 63.328125 86.320312 63.113281 C 85.9375 62.746094 85.546875 62.378906 85.148438 61.996094 C 85.089844 61.941406 83.695312 60.566406 81.398438 58.367188 C 76.820312 54.148438 72.394531 50.074219 69.324219 47.285156 C 59.90625 38.722656 47.488281 29.863281 43.386719 27.445312 C 40.324219 25.632812 37.175781 24.699219 36.925781 24.398438 C 36.847656 24.304688 37.046875 24.273438 37.609375 24.292969 C 37.21875 24.214844 36.851562 24.179688 36.519531 24.1875 C 36.382812 24.1875 36.253906 24.195312 36.132812 24.210938 C 36.089844 24.230469 36.367188 24.597656 36.914062 25.265625 "/>
<path style=" stroke:none;fill-rule:nonzero;fill:rgb(100%,100%,100%);fill-opacity:1;" d="M 103.132812 90.246094 C 103.132812 90.246094 97.554688 90.351562 97.757812 91.234375 C 97.960938 92.121094 102.398438 95.933594 103.96875 97.605469 C 105.539062 99.269531 107.6875 101.644531 107.6875 101.644531 C 107.6875 101.644531 103.726562 95.632812 102.371094 93.988281 C 101.023438 92.347656 102.855469 90.945312 103.136719 90.25 Z M 103.132812 90.246094 "/>
<path style=" stroke:none;fill-rule:nonzero;fill:url(#linear2);" d="M 89.585938 65.925781 C 89.625 65.964844 89.667969 66 89.710938 66.039062 L 90.242188 66.113281 C 90.199219 66.070312 90.160156 66.027344 90.113281 65.988281 L 89.585938 65.929688 M 36.929688 24.398438 C 37.179688 24.699219 40.328125 25.632812 43.390625 27.445312 C 47.492188 29.863281 59.910156 38.722656 69.324219 47.289062 C 72.394531 50.078125 76.824219 54.148438 81.398438 58.371094 C 83.097656 59.933594 84.816406 61.519531 86.488281 63.070312 C 86.644531 63.015625 86.757812 62.941406 86.8125 62.832031 C 81.007812 57.292969 74.449219 51.101562 69.25 46.386719 C 68.175781 45.410156 67.15625 44.496094 66.21875 43.664062 C 64.183594 41.871094 62.070312 40.109375 59.957031 38.429688 C 55.917969 35.226562 51.871094 32.304688 48.335938 29.960938 C 44.910156 27.695312 41.96875 25.964844 39.988281 25.046875 C 39.714844 24.917969 39.457031 24.804688 39.222656 24.707031 C 38.59375 24.449219 38.105469 24.308594 37.777344 24.296875 C 37.71875 24.292969 37.664062 24.292969 37.613281 24.289062 C 37.050781 24.277344 36.851562 24.308594 36.929688 24.402344 "/>
<path style=" stroke:none;fill-rule:nonzero;fill:rgb(100%,100%,100%);fill-opacity:1;" d="M 118.652344 115.28125 C 118.652344 115.28125 119.746094 118.851562 117.019531 120.167969 C 114.289062 121.488281 113.078125 123.535156 115.222656 122.300781 C 117.363281 121.070312 120.984375 120.988281 120.402344 118.046875 C 119.820312 115.105469 118.046875 112.621094 118.652344 115.28125 Z M 118.652344 115.28125 "/>
<path style=" stroke:none;fill-rule:nonzero;fill:rgb(76.862745%,76.862745%,76.862745%);fill-opacity:1;" d="M 18.652344 56.785156 C 18.652344 56.785156 18.945312 59.898438 30.957031 64.785156 C 37.960938 67.640625 48.136719 70.277344 65.898438 75.136719 C 82.792969 79.753906 99.738281 82.300781 99.738281 82.300781 C 99.738281 82.300781 102.539062 79.746094 103.492188 78.710938 C 104.4375 77.675781 109.210938 76.636719 114.007812 76.820312 C 118.796875 77.007812 131.132812 78.210938 135.59375 78.925781 C 140.050781 79.644531 153.425781 81.796875 153.425781 81.796875 C 154.007812 81.9375 159.679688 82.410156 160.292969 82.46875 C 167.957031 83.21875 174.78125 77.621094 175.527344 69.964844 C 176.277344 62.3125 172.027344 56.101562 164.441406 53.402344 C 164.144531 53.296875 161.613281 52.710938 160.222656 52.621094 C 158.410156 52.503906 155.917969 52.835938 155.527344 52.894531 C 148.421875 54.042969 143.382812 59.941406 142.699219 66.878906 C 142.546875 68.4375 142.65625 69.957031 142.996094 71.398438 C 142.933594 71.578125 142.859375 71.773438 142.78125 72 C 142 74.183594 136.367188 73.914062 136.367188 73.914062 C 122.65625 72.296875 107.429688 68.828125 97.390625 67.28125 L 18.648438 56.78125 M 146.0625 67.183594 C 146.605469 61.667969 150.832031 56.972656 156.324219 56.035156 C 156.636719 55.984375 158.4375 55.921875 159.886719 56.015625 C 160.980469 56.085938 162.921875 56.378906 163.15625 56.457031 C 169.683594 58.691406 172.753906 63.554688 172.164062 69.636719 C 171.566406 75.722656 166.695312 78.65625 161.296875 79.199219 C 159.4375 79.386719 155.328125 78.554688 154.867188 78.449219 C 149.519531 77.21875 145.515625 72.78125 146.0625 67.183594 "/>
<path style=" stroke:none;fill-rule:nonzero;fill:url(#linear3);" d="M 170.433594 60.121094 C 172.542969 62.6875 173.496094 65.96875 173.128906 69.734375 C 172.554688 75.585938 168.171875 79.488281 161.394531 80.167969 C 159.230469 80.382812 154.691406 79.40625 154.648438 79.398438 C 151.675781 78.710938 149.222656 77.183594 147.539062 75.140625 C 145.722656 72.933594 144.800781 70.113281 145.097656 67.09375 C 145.683594 61.125 150.335938 56.078125 156.160156 55.085938 C 156.5625 55.015625 158.4375 54.953125 159.949219 55.050781 C 160.980469 55.121094 163.089844 55.414062 163.46875 55.542969 C 166.445312 56.5625 168.792969 58.128906 170.433594 60.125 M 100.214844 80.542969 C 101.078125 79.734375 102.238281 78.632812 102.773438 78.058594 L 102.996094 77.847656 C 104.546875 76.574219 109.503906 75.679688 114.042969 75.851562 C 118.882812 76.039062 131.253906 77.25 135.75 77.976562 C 141.109375 78.835938 153.589844 80.84375 153.644531 80.855469 C 153.90625 80.914062 155.851562 81.109375 159.417969 81.417969 L 160.386719 81.507812 C 163.839844 81.84375 167.210938 80.816406 169.890625 78.617188 C 172.566406 76.421875 174.226562 73.316406 174.5625 69.871094 C 174.960938 65.792969 173.871094 62.15625 171.519531 59.300781 C 169.742188 57.136719 167.238281 55.429688 164.117188 54.316406 C 163.855469 54.226562 161.4375 53.671875 160.160156 53.589844 C 158.496094 53.476562 156.171875 53.777344 155.683594 53.855469 C 153.246094 54.246094 150.9375 55.292969 149.007812 56.878906 C 146 59.347656 144.050781 63.023438 143.664062 66.972656 C 143.527344 68.390625 143.617188 69.804688 143.941406 71.175781 L 144.007812 71.457031 L 143.691406 72.328125 C 143.539062 72.765625 143.25 73.160156 142.84375 73.496094 C 140.96875 75.035156 137.042969 74.917969 136.25 74.878906 C 127.65625 73.867188 118.472656 72.125 110.375 70.589844 C 109.667969 70.460938 108.96875 70.328125 108.277344 70.195312 L 100.207031 80.539062 "/>
<path style=" stroke:none;fill-rule:nonzero;fill:url(#radial2);" d="M 19.144531 58.074219 C 20.277344 59.449219 23.222656 61.867188 30.875 64.980469 C 35.25 66.761719 40.808594 68.449219 48.710938 70.652344 C 35.933594 66.898438 23.097656 62.265625 19.625 58.046875 C 19.347656 57.710938 19.128906 57.375 18.976562 57.042969 C 18.96875 57.003906 19 57.011719 19.078125 57.054688 L 80.09375 64.972656 L 97.386719 67.28125 C 100.742188 67.796875 104.675781 68.535156 108.941406 69.335938 L 108.796875 69.527344 C 109.359375 69.636719 109.933594 69.742188 110.511719 69.851562 C 118.605469 71.382812 127.773438 73.117188 136.339844 74.132812 C 136.554688 74.136719 140.660156 74.3125 142.359375 72.917969 C 142.644531 72.683594 142.863281 72.402344 142.980469 72.070312 L 143.21875 71.410156 L 143.203125 71.347656 C 142.863281 69.890625 142.765625 68.398438 142.910156 66.898438 C 143.332031 62.613281 145.425781 58.835938 148.523438 56.292969 C 150.511719 54.660156 152.917969 53.53125 155.5625 53.109375 C 156.066406 53.027344 158.472656 52.722656 160.207031 52.832031 C 161.578125 52.921875 164.097656 53.507812 164.363281 53.601562 C 167.628906 54.765625 170.25 56.558594 172.113281 58.828125 C 174.582031 61.828125 175.730469 65.65625 175.3125 69.945312 C 174.957031 73.585938 173.199219 76.878906 170.367188 79.199219 C 167.535156 81.527344 163.960938 82.613281 160.3125 82.257812 L 159.347656 82.164062 C 157.582031 82.011719 153.917969 81.695312 153.472656 81.585938 L 135.625 78.714844 C 131.148438 77.996094 118.832031 76.789062 114.007812 76.605469 C 109.308594 76.421875 104.734375 77.390625 103.476562 78.421875 C 103.421875 78.464844 103.367188 78.515625 103.332031 78.5625 C 102.460938 79.507812 100.042969 81.730469 99.667969 82.070312 C 99.578125 82.058594 99.382812 82.027344 99.089844 81.980469 L 98.933594 82.175781 C 96.398438 81.773438 88.117188 80.402344 78.207031 78.175781 C 78.054688 78.144531 71.234375 76.667969 62.265625 74.367188 L 65.839844 75.339844 C 72.425781 77.140625 79.054688 78.632812 84.683594 79.78125 C 84.898438 79.824219 85.109375 79.867188 85.324219 79.910156 C 85.527344 79.953125 85.726562 79.992188 85.925781 80.03125 C 92.824219 81.414062 98.003906 82.246094 99.359375 82.457031 C 99.574219 82.492188 99.695312 82.511719 99.707031 82.511719 L 99.808594 82.527344 L 99.882812 82.457031 C 99.910156 82.433594 100.082031 82.277344 100.34375 82.035156 C 100.574219 81.824219 100.875 81.546875 101.203125 81.238281 C 101.375 81.078125 101.554688 80.914062 101.730469 80.738281 C 102.464844 80.046875 103.226562 79.308594 103.648438 78.855469 C 104.554688 77.863281 109.269531 76.851562 113.996094 77.035156 C 118.800781 77.222656 131.09375 78.421875 135.558594 79.140625 L 153.390625 82.011719 C 153.792969 82.105469 156.472656 82.347656 159.308594 82.597656 L 160.269531 82.683594 C 164.039062 83.050781 167.71875 81.929688 170.644531 79.53125 C 173.5625 77.132812 175.375 73.746094 175.738281 69.984375 C 176.171875 65.570312 174.992188 61.632812 172.457031 58.550781 C 170.542969 56.226562 167.859375 54.386719 164.507812 53.199219 C 164.164062 53.070312 161.617188 52.492188 160.238281 52.402344 C 158.460938 52.285156 156.003906 52.597656 155.492188 52.683594 C 152.773438 53.121094 150.300781 54.28125 148.253906 55.960938 C 145.066406 58.574219 142.914062 62.453125 142.484375 66.855469 C 142.332031 68.375 142.433594 69.894531 142.773438 71.375 C 142.75 71.445312 142.574219 71.921875 142.574219 71.921875 C 142.480469 72.1875 142.304688 72.414062 142.070312 72.605469 C 140.519531 73.878906 136.421875 73.699219 136.375 73.699219 C 127.839844 72.6875 118.679688 70.957031 110.59375 69.429688 C 105.761719 68.511719 101.203125 67.652344 97.425781 67.066406 L 91.910156 66.332031 L 91.203125 66.238281 L 90.242188 66.109375 L 89.710938 66.039062 L 89.324219 65.988281 L 81.167969 64.898438 L 70.210938 63.570312 L 70.089844 63.421875 L 18.410156 56.554688 L 18.433594 56.828125 C 18.4375 56.871094 18.496094 57.3125 19.140625 58.09375 "/>
<path style=" stroke:none;fill-rule:nonzero;fill:url(#radial3);" d="M 154.820312 78.660156 C 155.480469 78.816406 159.492188 79.597656 161.320312 79.417969 C 167.707031 78.777344 171.839844 75.128906 172.375 69.664062 C 172.996094 63.339844 169.660156 58.457031 163.222656 56.257812 C 162.949219 56.164062 160.984375 55.875 159.898438 55.804688 C 158.441406 55.710938 156.613281 55.769531 156.289062 55.828125 C 150.789062 56.765625 146.402344 61.53125 145.851562 67.167969 C 145.3125 72.59375 149.003906 77.328125 154.8125 78.664062 Z M 171.949219 69.621094 C 171.433594 74.867188 167.445312 78.371094 161.277344 78.988281 C 159.511719 79.167969 155.566406 78.390625 154.917969 78.242188 C 149.320312 76.953125 145.769531 72.414062 146.28125 67.207031 C 146.605469 63.878906 148.316406 60.863281 150.8125 58.816406 C 152.398438 57.515625 154.300781 56.605469 156.363281 56.253906 C 156.664062 56.199219 158.46875 56.144531 159.875 56.234375 C 161.003906 56.308594 162.890625 56.597656 163.085938 56.667969 C 169.308594 58.789062 172.542969 63.511719 171.945312 69.617188 Z M 171.949219 69.621094 "/>
<path style=" stroke:none;fill-rule:nonzero;fill:url(#linear4);" d="M 79.824219 65.917969 C 85.179688 66.632812 89.753906 67.246094 92.867188 67.65625 L 93.3125 67.003906 C 93.3125 67.003906 105.699219 68.824219 107.429688 69.910156 L 107.339844 70.023438 C 107.648438 70.082031 107.960938 70.140625 108.273438 70.199219 L 108.796875 69.53125 C 104.605469 68.738281 100.679688 68.011719 97.363281 67.5 C 97.363281 67.5 90.117188 66.53125 80.035156 65.1875 L 79.820312 65.917969 M 55.746094 72.144531 C 57.042969 72.496094 58.390625 72.863281 59.796875 73.246094 L 65.953125 74.929688 C 80.816406 78.988281 95.859375 81.472656 99.089844 81.984375 L 100.210938 80.542969 C 99.890625 80.839844 99.617188 81.09375 99.421875 81.269531 C 99.207031 81.238281 98.867188 81.183594 98.421875 81.109375 L 98.183594 81.402344 L 92.417969 80.292969 C 96.152344 81.175781 98.558594 81.746094 98.558594 81.746094 C 98.558594 81.746094 93.402344 80.660156 86.265625 79.109375 L 85.25 78.914062 L 85.265625 78.890625 C 76.21875 76.917969 64.367188 74.277344 55.742188 72.140625 M 43.746094 68.011719 C 47.949219 69.371094 52.40625 70.683594 56.640625 71.726562 C 57.929688 72.046875 59.40625 72.40625 61.015625 72.792969 L 59.992188 72.515625 C 53.492188 70.742188 48.179688 69.296875 43.746094 68.011719 M 21.078125 59.304688 C 22.777344 60.636719 25.769531 62.4375 31.03125 64.582031 C 34.464844 65.976562 38.636719 67.316406 44.117188 68.898438 C 33.742188 65.605469 24.382812 61.542969 21.078125 59.304688 M 19.476562 57.792969 C 19.582031 57.921875 19.707031 58.0625 19.855469 58.214844 C 18.636719 56.519531 20.828125 58.605469 24.234375 60.496094 C 22.964844 59.761719 22.042969 59.113281 21.375 58.574219 C 19.679688 57.609375 18.96875 57.035156 18.96875 57.035156 C 19.054688 57.214844 19.207031 57.46875 19.476562 57.792969 "/>
<path style=" stroke:none;fill-rule:nonzero;fill:url(#linear5);" d="M 48.710938 70.652344 C 53.394531 72.03125 58.066406 73.289062 62.265625 74.367188 L 59.683594 73.660156 C 55.582031 72.546875 51.949219 71.558594 48.710938 70.65625 "/>
<path style=" stroke:none;fill-rule:nonzero;fill:url(#linear6);" d="M 18.976562 57.046875 C 18.976562 57.046875 19.6875 57.617188 21.378906 58.582031 C 26.824219 61.683594 42.457031 68.855469 77.449219 74.175781 L 79.824219 65.921875 L 80.035156 65.1875 L 80.09375 64.976562 L 19.078125 57.058594 L 18.976562 57.050781 "/>
<path style=" stroke:none;fill-rule:nonzero;fill:rgb(100%,100%,100%);fill-opacity:1;" d="M 107.308594 75.863281 C 107.308594 75.863281 110.171875 71.65625 111.019531 71.328125 C 111.867188 71.007812 115.589844 72.136719 117.851562 72.507812 C 120.113281 72.882812 123.28125 73.34375 123.28125 73.34375 C 123.28125 73.34375 116.074219 73.40625 113.953125 73.199219 C 111.828125 72.988281 107.730469 75.242188 107.304688 75.863281 Z M 107.308594 75.863281 "/>
<path style=" stroke:none;fill-rule:nonzero;fill:url(#linear7);" d="M 86.265625 79.109375 C 93.40625 80.660156 98.5625 81.742188 98.5625 81.742188 C 98.5625 81.742188 96.152344 81.175781 92.421875 80.292969 L 86.269531 79.109375 M 20.007812 58.425781 C 20.210938 58.671875 20.578125 58.972656 21.085938 59.316406 C 24.390625 61.550781 33.75 65.613281 44.125 68.910156 C 46.679688 69.722656 49.300781 70.488281 51.90625 71.171875 C 53.089844 71.480469 54.378906 71.808594 55.75 72.148438 C 64.378906 74.289062 76.226562 76.925781 85.269531 78.894531 L 85.441406 78.644531 C 77.707031 76.808594 68.082031 74.515625 61.023438 72.804688 C 59.414062 72.414062 57.9375 72.054688 56.648438 71.734375 C 52.414062 70.691406 47.957031 69.378906 43.753906 68.019531 C 35.675781 65.402344 28.53125 62.617188 25.707031 61.269531 C 25.203125 61.03125 24.710938 60.773438 24.242188 60.511719 C 20.839844 58.617188 18.644531 56.53125 19.863281 58.230469 C 19.894531 58.273438 19.925781 58.316406 19.960938 58.363281 C 19.976562 58.375 19.992188 58.394531 20.011719 58.417969 "/>
<path style=" stroke:none;fill-rule:nonzero;fill:url(#radial4);" d="M 88.953125 75.257812 C 88.800781 75.28125 88.644531 75.289062 88.484375 75.269531 C 87.984375 75.222656 87.554688 74.976562 87.261719 74.621094 C 86.964844 74.261719 86.804688 73.789062 86.859375 73.292969 C 86.953125 72.296875 87.839844 71.570312 88.839844 71.664062 C 88.996094 71.679688 89.148438 71.714844 89.289062 71.769531 L 89.429688 70.355469 L 89.585938 70.367188 L 89.445312 71.832031 C 89.445312 71.835938 89.449219 71.835938 89.453125 71.839844 L 89.597656 70.371094 L 89.761719 70.382812 L 89.609375 71.925781 C 89.785156 72.03125 89.933594 72.164062 90.0625 72.320312 C 90.355469 72.675781 90.515625 73.148438 90.464844 73.640625 C 90.394531 74.355469 89.921875 74.933594 89.292969 75.167969 L 89.234375 75.777344 L 89.070312 75.757812 L 89.121094 75.222656 C 89.117188 75.222656 89.113281 75.222656 89.113281 75.222656 L 89.058594 75.761719 L 88.902344 75.746094 L 88.953125 75.269531 M 87.066406 74.792969 C 87.242188 75.003906 87.449219 75.1875 87.679688 75.339844 C 88.046875 75.582031 88.472656 75.742188 88.9375 75.789062 C 90.457031 75.933594 91.8125 74.824219 91.960938 73.304688 C 92.035156 72.546875 91.796875 71.828125 91.34375 71.28125 C 91.183594 71.082031 90.992188 70.910156 90.78125 70.761719 C 90.40625 70.5 89.960938 70.332031 89.476562 70.285156 C 87.953125 70.136719 86.601562 71.25 86.453125 72.765625 C 86.378906 73.53125 86.617188 74.253906 87.070312 74.800781 "/>
<path style=" stroke:none;fill-rule:nonzero;fill:rgb(100%,100%,100%);fill-opacity:1;" d="M 140.757812 74.65625 C 140.757812 74.65625 144.335938 73.582031 143.917969 70.578125 C 143.496094 67.582031 144.519531 65.4375 144.6875 67.902344 C 144.855469 70.363281 146.804688 73.414062 144.035156 74.570312 C 141.269531 75.722656 138.210938 75.628906 140.757812 74.65625 Z M 140.757812 74.65625 "/>
<path style=" stroke:none;fill-rule:nonzero;fill:rgb(100%,100%,100%);fill-opacity:1;" d="M 82.125 66.285156 C 82.125 66.285156 80.003906 65.242188 79.667969 66.355469 C 79.328125 67.46875 77.464844 74.160156 77.464844 74.160156 C 77.464844 74.160156 79.726562 67.277344 80.449219 66.96875 C 81.175781 66.660156 82.125 66.285156 82.125 66.285156 Z M 82.125 66.285156 "/>
<path style=" stroke:none;fill-rule:nonzero;fill:url(#linear8);" d="M 69.484375 62.683594 L 70.09375 63.425781 L 70.242188 63.445312 L 69.582031 62.699219 C 69.519531 62.6875 69.488281 62.683594 69.488281 62.683594 "/>
<path style=" stroke:none;fill-rule:nonzero;fill:url(#linear9);" d="M 86.8125 62.828125 C 87.945312 63.910156 89.054688 64.972656 90.113281 65.988281 L 91.066406 66.105469 C 89.644531 64.707031 88.121094 63.234375 86.527344 61.71875 C 86.753906 62.109375 86.898438 62.476562 86.839844 62.746094 C 86.835938 62.773438 86.824219 62.796875 86.816406 62.828125 "/>
</g>
</svg>
